#!OML:ASF H:\Martial Arts Walks\Project 1\Capture day 1\Session 1\male.ASF
:FULLY-SPECIFIED
:DEGREES
1300
root -4.93052 17.3596 23.6542 -273.579 49.51 -282.035
lowerback 21.5129 4.39055 -12.0442
upperback 0.684312 2.34643 -11.261
thorax -11.3611 1.72589 -6.83424
lowerneck -3.8487 11.544 3.08223
upperneck 5.05702 16.6752 -14.5869
head 3.65474 8.03462 -3.98923
rclavicle 1.19271e-014 -2.06736e-014
rhumerus -7.41837 53.0772 -47.7948
rradius 103.379
rwrist 2.03861
rhand -9.38496 -25.5933
rfingers 7.12502
rthumb 16.5758 -54.9054
lclavicle 1.19271e-014 -2.06736e-014
lhumerus -35.5539 19.598 40.6556
lradius 45.7633
lwrist 22.0827
lhand -38.1895 29.1885
lfingers 7.12502
lthumb -11.222 58.8684
rfemur -32.233 -14.0427 -9.32241
rtibia 49.5961
rfoot -16.2185 -1.87789
rtoes 4.07244
lfemur -22.8234 21.1827 18.3475
ltibia 45.2548
lfoot -10.6843 23.4391
ltoes -9.86527
1301
root -4.88589 17.4679 23.5683 -274.986 48.6041 -283.535
lowerback 21.375 4.38833 -12.4373
upperback 0.678388 2.26575 -11.423
thorax -11.3024 1.70915 -6.77205
lowerneck -3.94477 11.5596 3.25648
upperneck 5.41284 16.7794 -14.9099
head 3.83107 8.05992 -4.08246
rclavicle -6.36111e-015 3.18055e-014
rhumerus -3.89056 53.8841 -45.8743
rradius 103.04
rwrist 1.26198
rhand -8.86608 -25.3814
rfingers 7.12502
rthumb 17.0753 -54.651
lclavicle -6.36111e-015 3.18055e-014
lhumerus -37.6044 21.3165 39.0636
lradius 42.2751
lwrist 20.5867
lhand -36.9211 27.1186
lfingers 7.12502
lthumb -9.99854 56.8611
rfemur -32.2791 -15.3251 -9.80433
rtibia 48.6688
rfoot -15.5119 -1.53896
rtoes 5.09879
lfemur -16.4657 12.7267 21.1857
ltibia 33.2244
lfoot -5.78992 29.8117
ltoes -5.83027
1302
root -4.83949 17.5522 23.4769 -276.221 47.9926 -284.759
lowerback 21.284 4.37152 -12.5147
upperback 0.729246 2.24293 -11.4884
thorax -11.1932 1.69957 -6.7828
lowerneck -4.18281 11.4871 3.26604
upperneck 5.833 16.7599 -15.0278
head 4.00745 8.0162 -4.09348
rclavicle 8.5875e-014 5.40694e-014
rhumerus -0.396515 54.5322 -44.0758
rradius 102.548
rwrist 0.46651
rhand -8.41219 -25.4051
rfingers 7.12502
rthumb 17.5122 -54.6363
lclavicle 8.5875e-014 5.40694e-014
lhumerus -39.6982 23.0983 37.5145
lradius 39.3144
lwrist 18.6368
lhand -35.5477 24.9467
lfingers 7.12502
lthumb -8.67332 54.7485
rfemur -32.1816 -16.6261 -9.97231
rtibia 47.7101
rfoot -14.8393 -1.49836
rtoes 5.17149
lfemur -9.95158 2.95337 23.9958
ltibia 21.0189
lfoot -1.78291 34.8737
ltoes -1.16828
1303
root -4.79995 17.6288 23.387 -276.787 47.415 -285.488
lowerback 20.9891 4.23326 -12.5223
upperback 0.768726 2.11741 -11.5262
thorax -10.9837 1.63744 -6.74295
lowerneck -4.43753 11.3781 3.31776
upperneck 6.22314 16.6893 -15.1842
head 4.18006 7.94733 -4.12674
rclavicle 3.57812e-014 6.20208e-014
rhumerus 3.27232 55.1271 -41.8802
rradius 102.176
rwrist -0.51669
rhand -8.18654 -25.5357
rfingers 7.12502
rthumb 17.7293 -54.7475
lclavicle 3.57812e-014 6.20208e-014
lhumerus -41.9193 25.0361 35.9051
lradius 36.8477
lwrist 16.3735
lhand -34.2613 21.9185
lfingers 7.12502
lthumb -7.43175 51.7679
rfemur -32.2025 -18 -10.1194
rtibia 46.6992
rfoot -14.3224 -1.9643
rtoes 3.9775
lfemur -2.58389 3.28932 25.8106
ltibia 6.68121
lfoot 2.66414 29.5496
ltoes 4.20411
1304
root -4.7893 17.6833 23.3094 -277.239 46.8787 -285.74
lowerback 21.2887 4.14641 -12.7496
upperback 0.877743 1.90508 -11.4193
thorax -11.0383 1.5491 -6.44185
lowerneck -4.63504 11.1839 3.32189
upperneck 6.42236 16.4875 -15.4076
head 4.27513 7.82406 -4.19394
rclavicle -1.74931e-014 3.02153e-014
rhumerus 6.97143 55.5407 -39.3947
rradius 101.924
rwrist -1.59686
rhand -8.0506 -25.6212
rfingers 7.12502
rthumb 17.8601 -54.8211
lclavicle -1.74931e-014 3.02153e-014
lhumerus -44.3561 26.9797 34.3614
lradius 35.1339
lwrist 14.0956
lhand -33.0109 18.2441
lfingers 7.12502
lthumb -6.22474 48.1327
rfemur -31.8575 -18.864 -10.4579
rtibia 45.8085
rfoot -14.0387 -2.32718
rtoes 5.31898
lfemur 1.08771 3.10632 28.0972
ltibia 8.63471e-016
lfoot 5.48413 26.2061
ltoes 3.50244
1305
root -4.78485 17.7241 23.2147 -277.152 46.5198 -285.695
lowerback 21.2789 4.00684 -12.6277
upperback 1.00842 1.77446 -11.33
thorax -10.8802 1.4783 -6.34083
lowerneck -4.81499 10.8826 3.35979
upperneck 6.48834 16.0953 -15.5135
head 4.29997 7.61758 -4.25408
rclavicle -2.22639e-014 -6.36111e-015
rhumerus 10.1406 55.684 -36.9991
rradius 101.897
rwrist -2.70309
rhand -8.08368 -25.7167
rfingers 7.12502
rthumb 17.8283 -54.9195
lclavicle -2.22639e-014 -6.36111e-015
lhumerus -46.6586 29.1861 32.7712
lradius 33.887
lwrist 11.4804
lhand -31.6452 14.3586
lfingers 7.12502
lthumb -4.90616 44.2818
rfemur -31.6719 -19.7129 -10.685
rtibia 44.9323
rfoot -13.7814 -3.09573
rtoes 3.53357
lfemur 1.13516 2.97886 29.3425
ltibia -6.5102e-015
lfoot 6.5521 25.7552
ltoes 1.39804
